# xmcd
#
# Track frame offsets: 
#        150
#        10659
#        24393
#        38385
#        56856
#        71579
#        92718
#        103032
#        120563
#        133879
#        149940
#        152724
#        170289
#        183104
#        199123
#        214104
#        238531
#        252711
#        264766
#        287660
#        305469
#
# Disc length: 4281 seconds
#
# Revision: 0
# Processed by: cddbd v1.5.2PL0 Copyright (c) Steve Scherf et al.
# Submitted via: ExactAudioCopy v1.3
#
DISCID=2b10b715
DTITLE=The Little Red Rooster Blues Ba - Sip It, Don't Kick It
DYEAR=2015
DGENRE=East Coast Blues
TTITLE0=Doin' Alright
TTITLE1=Senorita
TTITLE2=Little Girl
TTITLE3=Broken Heart In Two
TTITLE4=Malt Liquor And Fruit Wine
TTITLE5=Smoke And Fire
TTITLE6=Moo
TTITLE7=Workin' Off The Rent
TTITLE8=Dynamite Baby
TTITLE9=Thinkin' Bout A Lady
TTITLE10=Intro- Gold Digger
TTITLE11=Gold Digger
TTITLE12=You Weren't Lying
TTITLE13=Riding With The Chief
TTITLE14=Stinkin' Rich
TTITLE15=You Were Gone
TTITLE16=Momma's Boy
TTITLE17=Blood Stains
TTITLE18=You're The One
TTITLE19=Kid Comet
TTITLE20=Who Don't Know That !
EXTD=
EXTT0=
EXTT1=
EXTT2=
EXTT3=
EXTT4=
EXTT5=
EXTT6=
EXTT7=
EXTT8=
EXTT9=
EXTT10=
EXTT11=
EXTT12=
EXTT13=
EXTT14=
EXTT15=
EXTT16=
EXTT17=
EXTT18=
EXTT19=
EXTT20=
PLAYORDER=
